<svg width="46" height="85" viewBox="0 0 46 85" fill="none" xmlns="http://www.w3.org/2000/svg">
<g clip-path="url(#clip0_80_161)">
<path d="M43.917 0.0179996L32.972 0C20.674 0 12.726 8.154 12.726 20.773V30.351H1.721C0.770001 30.351 0 31.121 0 32.073V45.95C0 46.901 0.771001 47.671 1.721 47.671H12.726V82.689C12.726 83.64 13.496 84.41 14.447 84.41H28.807C29.756 84.41 30.528 83.639 30.528 82.689V47.672H43.395C44.348 47.672 45.118 46.902 45.118 45.951L45.124 32.074C45.124 31.616 44.942 31.179 44.618 30.856C44.296 30.533 43.858 30.352 43.401 30.352H30.528V22.233C30.528 18.33 31.458 16.349 36.54 16.349L43.915 16.346C44.866 16.346 45.636 15.575 45.636 14.624V1.739C45.636 0.79 44.867 0.0199996 43.917 0.0179996Z" fill="#006DE3"/>
</g>
<defs>
<clipPath id="clip0_80_161">
<rect width="45.636" height="84.41" fill="white"/>
</clipPath>
</defs>
</svg>
