<svg width="41" height="17" viewBox="0 0 41 17" fill="none" xmlns="http://www.w3.org/2000/svg">
<g clip-path="url(#clip0_5015_787)">
<path d="M4.1132 3.98535V6.68734H8.62232V10.245H4.1132V16.5721H0V0.427734H9.08423V3.98535H4.1132Z" fill="#003256"/>
<path d="M9.854 0.450195V16.5946H13.9232V4.00781H14.891C17.5525 4.00781 19.4001 5.629 19.4001 8.53364C19.4001 11.686 17.3325 13.0144 14.869 13.0144H13.9452V16.5946H15.6829C20.038 16.5946 23.6893 13.0595 23.6893 8.53364C23.6893 4.00781 20.082 0.472712 15.6829 0.472712L9.854 0.450195Z" fill="#003256"/>
<path d="M24.2393 16.5721H28.3525V0.427734H24.2393V16.5721Z" fill="#003256"/>
<path d="M40.956 5.83179C40.1202 4.68344 38.7564 4.05298 37.3487 4.05298C34.8412 4.05298 33.1475 6.01192 33.1475 8.53378C33.1475 11.0556 34.8852 12.902 37.4147 12.902C38.7564 12.902 40.0982 12.2265 40.956 11.2132V16.257C39.6143 16.6623 38.6025 17 37.3487 17C35.1491 17 33.0375 16.1444 31.4318 14.5907C29.6942 12.9695 28.9023 10.898 28.9023 8.48874C28.9023 6.28212 29.7382 4.16556 31.2559 2.5894C32.7956 0.990728 35.0172 0 37.2607 0C38.5585 0 39.7682 0.315232 41 0.833113L40.956 5.83179Z" fill="#003256"/>
</g>
<defs>
<clipPath id="clip0_5015_787">
<rect width="41" height="17" fill="white"/>
</clipPath>
</defs>
</svg>
