<svg width="87" height="85" viewBox="0 0 87 85" fill="none" xmlns="http://www.w3.org/2000/svg">
<path d="M73.3 0H8.1C3.7 0 0 3.7 0 8.1V73.3C0 77.8 3.7 81.5 8.1 81.5H73.3C77.8 81.5 81.5 77.8 81.5 73.3V8.1C81.5 3.7 77.8 0 73.3 0ZM40.8 24.5C49.8 24.5 57.1 31.8 57.1 40.8C57.1 49.8 49.7 57 40.8 57C31.9 57 24.5 49.7 24.5 40.7C24.5 31.7 31.8 24.5 40.8 24.5ZM10.2 73.3C9 73.3 8.2 72.5 8.2 71.3V36.7H16.8C16.4 37.9 16.4 39.6 16.4 40.8C16.4 54.2 27.4 65.2 40.9 65.2C54.4 65.2 65.3 54.2 65.3 40.8C65.3 39.6 65.3 37.9 64.9 36.7H73.5V71.3C73.5 72.5 72.7 73.3 71.5 73.3H10.2ZM73.3 18.3C73.3 19.5 72.5 20.3 71.3 20.3H63.1C61.9 20.3 61.1 19.5 61.1 18.3V10.2C61.1 9 61.9 8.2 63.1 8.2H71.3C72.5 8.2 73.3 9 73.3 10.2V18.3Z" fill="#006DE3"/>
</svg>
