<svg width="81" height="97" viewBox="0 0 81 97" fill="none" xmlns="http://www.w3.org/2000/svg">
<g clip-path="url(#clip0_80_164)">
<path d="M68.5151 70.882H63.1809L63.206 67.793C63.206 66.42 64.3364 65.297 65.7176 65.297H66.0586C67.4418 65.297 68.5783 66.42 68.5783 67.793L68.5151 70.882ZM48.5043 64.261C47.1502 64.261 46.0438 65.168 46.0438 66.281V81.302C46.0438 82.41 47.1512 83.317 48.5043 83.317C49.8624 83.317 50.9728 82.413 50.9728 81.302V66.28C50.9728 65.169 49.8644 64.261 48.5043 64.261ZM81 55.859V84.44C81 91.294 75.0369 96.905 67.7488 96.905H13.2522C5.9611 96.905 0 91.296 0 84.44V55.859C0 49.004 5.9611 43.392 13.2522 43.392H67.7488C75.0369 43.392 81 49.003 81 55.859ZM16.8883 87.542L16.8833 57.438L23.6378 57.441V52.979L5.6291 52.952V57.338L11.2502 57.356V87.544L16.8883 87.542ZM37.1378 61.921H31.5057V77.997C31.5057 80.322 31.6481 81.485 31.4977 81.895C31.0393 83.141 28.98 84.465 28.1766 82.03C28.0402 81.604 28.1605 80.318 28.1585 78.108L28.1354 61.92H22.5354L22.5535 77.855C22.5595 80.295 22.4973 82.118 22.5746 82.948C22.713 84.408 22.6628 86.111 24.023 87.085C26.5557 88.904 31.4124 86.814 32.6271 84.213L32.6171 87.532L37.1408 87.537L37.1378 61.921ZM55.1555 80.331L55.1415 66.95C55.1364 61.847 51.3118 58.797 46.1181 62.923L46.1391 52.978L40.515 52.987L40.488 87.324L45.115 87.257L45.5363 85.118C51.4472 90.522 55.1635 86.817 55.1555 80.331ZM72.782 78.556L68.5602 78.578C68.5582 78.745 68.5502 78.937 68.5482 79.148V81.497C68.5482 82.755 67.506 83.778 66.2402 83.778H65.4137C64.1458 83.778 63.1036 82.755 63.1036 81.497V81.237V78.652V75.318H72.773V71.689C72.773 69.038 72.7058 66.385 72.4861 64.871C71.795 60.075 65.0405 59.314 61.6312 61.769C60.5629 62.536 59.7424 63.561 59.27 64.94C58.7895 66.32 58.5518 68.204 58.5518 70.595V78.574C58.5508 91.839 74.7089 89.965 72.782 78.556ZM51.1193 35.244C51.4091 35.948 51.8605 36.519 52.4744 36.949C53.0802 37.373 53.8536 37.587 54.7784 37.587C55.5928 37.587 56.31 37.369 56.9369 36.918C57.5618 36.469 58.0864 35.798 58.5157 34.903L58.4104 37.106H64.6905V10.488H59.7465V31.204C59.7465 32.326 58.8196 33.245 57.6862 33.245C56.5608 33.245 55.6289 32.327 55.6289 31.204V10.488H50.4693V28.441C50.4693 30.728 50.5124 32.253 50.5786 33.025C50.6518 33.792 50.8294 34.53 51.1193 35.244ZM32.0945 20.21C32.0945 17.655 32.3081 15.66 32.7334 14.221C33.1617 12.788 33.929 11.636 35.0404 10.768C36.1498 9.896 37.5701 9.457 39.2973 9.457C40.7488 9.457 41.9935 9.741 43.0337 10.298C44.0779 10.86 44.8863 11.584 45.441 12.483C46.0097 13.382 46.3969 14.307 46.6025 15.254C46.8132 16.213 46.9155 17.66 46.9155 19.612V26.341C46.9155 28.812 46.8142 30.626 46.6236 31.779C46.433 32.934 46.0198 34.008 45.3868 35.011C44.7609 36.006 43.9495 36.75 42.9715 37.227C41.9795 37.706 40.845 37.941 39.5652 37.941C38.1328 37.941 36.9282 37.744 35.9351 37.332C34.9381 36.923 34.1678 36.306 33.6191 35.487C33.0634 34.667 32.6752 33.667 32.4375 32.502C32.2028 31.338 32.0885 29.587 32.0885 27.254L32.0945 20.21ZM37.0104 30.784C37.0104 32.292 38.1368 33.522 39.508 33.522C40.8771 33.522 41.9975 32.292 41.9975 30.784V16.614C41.9975 15.109 40.8771 13.878 39.508 13.878C38.1368 13.878 37.0104 15.109 37.0104 16.614V30.784ZM19.6366 37.939H25.5576L25.5636 17.524L32.5629 0.036H26.0852L22.3649 13.026L18.5915 0H12.179L19.6256 17.533L19.6366 37.939Z" fill="#006DE3"/>
</g>
<defs>
<clipPath id="clip0_80_164">
<rect width="81" height="96.905" fill="white"/>
</clipPath>
</defs>
</svg>
